<svg width="64" height="64" viewBox="0 0 64 64" fill="none" xmlns="http://www.w3.org/2000/svg">
<g id="location-04 1">
<path id="lower-ring" d="M18.6667 48C13.7895 49.0979 10.6667 50.7848 10.6667 52.6765C10.6667 55.9848 20.2179 58.6667 32 58.6667C43.7821 58.6667 53.3333 55.9848 53.3333 52.6765C53.3333 50.7848 50.2104 49.0979 45.3333 48" stroke="white" stroke-width="4" stroke-linecap="round"/>
<path id="inner-ring" d="M38.6667 24C38.6667 27.6819 35.6819 30.6667 32 30.6667C28.3181 30.6667 25.3333 27.6819 25.3333 24C25.3333 20.3181 28.3181 17.3333 32 17.3333C35.6819 17.3333 38.6667 20.3181 38.6667 24Z" stroke="#F4FAFF" stroke-width="4"/>
<path id="outer-ring" d="M35.3531 46.6496C34.4536 47.5157 33.2515 48 32.0005 48C30.7493 48 29.5472 47.5157 28.6477 46.6496C20.4115 38.6688 9.37383 29.7533 14.7566 16.81C17.6669 9.81153 24.6532 5.33334 32.0005 5.33334C39.3477 5.33334 46.3339 9.81156 49.2443 16.81C54.6203 29.7371 43.6096 38.6963 35.3531 46.6496Z" stroke="white" stroke-width="4"/>
</g>
</svg>
